<?xml version="1.0" encoding="utf-8"?>
<!-- Generator: Adobe Illustrator 18.1.1, SVG Export Plug-In . SVG Version: 6.00 Build 0)  -->
<svg version="1.1" id="Capa_1" xmlns="http://www.w3.org/2000/svg" xmlns:xlink="http://www.w3.org/1999/xlink" x="0px" y="0px"
	 viewBox="62 205 486 367" enable-background="new 62 205 486 367" xml:space="preserve">
<g>
	<path fill="#E56A0D" d="M214.7,479v63.2h-6.3v-44.9l-7.1,40.4h-8.6l-7.1-40.4v45.1h-6.3v-63.2h9.6L197,526l8.1-46.8h9.6L214.7,479
		L214.7,479z"/>
	<path fill="#E56A0D" d="M240.1,527.3h-11.4l-2.3,15h-6.5L230,479h8.6l10.1,63.2h-6.5L240.1,527.3z M239.1,521.1l-4.7-29.2
		l-4.6,29.2H239.1z"/>
	<path fill="#E56A0D" d="M276.5,485.4h-8.9v57h-6.3v-57h-8.9V479h24v6.3h0.1V485.4z"/>
	<path fill="#E56A0D" d="M288.6,542.4h-6.3v-63.2h6.3V542.4z"/>
	<path fill="#E56A0D" d="M319.7,528.4v6.8c0,1.9-0.6,3.3-1.7,4.7c-1.2,1.3-2.6,2.2-4.3,2.4h-13.2c-1.7-0.3-3.2-1.2-4.3-2.4
		s-1.7-2.9-1.7-4.7v-49.1c0-1.9,0.6-3.3,1.7-4.7c1.2-1.3,2.6-2.2,4.3-2.4h13.2c1.7,0.3,3.2,1.2,4.3,2.4c1.2,1.3,1.7,2.9,1.7,4.7v6.8
		h-6.3v-6.8c0-0.6-0.3-0.9-0.9-0.9h-10.8c-0.6,0-0.9,0.3-0.9,0.9V535c0,0.6,0.3,0.9,0.9,0.9h10.8c0.6,0,0.9-0.3,0.9-0.9v-6.8h6.3
		V528.4z"/>
	<path fill="#E56A0D" d="M344.9,479c1.7,0.3,3.2,1.2,4.3,2.4c1.2,1.3,1.7,2.9,1.7,4.7v49.1c0,1.9-0.6,3.3-1.7,4.7
		c-1.2,1.4-2.6,2.2-4.3,2.4h-13.2c-1.7-0.3-3.2-1.2-4.3-2.4c-1.2-1.3-1.7-2.9-1.7-4.7v-49.1c0-1.9,0.6-3.3,1.7-4.7
		c1.2-1.3,2.6-2.2,4.3-2.4H344.9z M344.7,486.2c0-0.6-0.3-0.9-0.9-0.9h-11.1c-0.6,0-0.9,0.3-0.9,0.9v48.9c0,0.6,0.3,0.9,0.9,0.9
		h11.1c0.6,0,0.9-0.3,0.9-0.9V486.2z"/>
	<path fill="#3C3C3B" d="M363.1,534.5v7.9h-6.3v-7.9H363.1z"/>
	<path fill="#3C3C3B" d="M404.9,479v63.2h-6.3v-44.9l-7.1,40.4h-8.6l-7.1-40.4v45.1h-6.3v-63.2h9.6l8.1,46.8l8.1-46.8h9.6L404.9,479
		L404.9,479z"/>
	<path fill="#3C3C3B" d="M430.4,507.7l9.6,34.5h-6.8l-7.9-29.9l-7.9,29.9h-6.8l9.6-34.5l-9.6-28.6h6.9l7.8,24.5l7.6-24.5h6.9
		L430.4,507.7z"/>
</g>
<g>
	<path fill="#3C3C3B" d="M220.1,351.5h-19.3V441v25.6h-21.4V441v-89.5h-20.7v-21.4h20.7h21.4h19.3V351.5z"/>
	<path fill="#3C3C3B" d="M262.7,466.7H241l21.9-136.9h26.5l22,136.9h-21.9L285,438h-17.7L262.7,466.7z M276.2,372.1l-5.5,44.3h10.9
		L276.2,372.1z"/>
	<path fill="#3C3C3B" d="M398.1,331.4l-20.4,60.7l18.7,69.5l1.3,5h-5H378h-2.9l-0.7-3.2l-11.7-45.6l-11.4,45.6l-0.7,3.2h-3.2h-14.7
		h-5l1.3-5l18.6-69.5l-21-62H350l12.7,40l12.5-40h23.5L398.1,331.4z"/>
	<path fill="#3C3C3B" d="M418,466.7V330.1h21.4v136.6H418z"/>
</g>
<g>
	<path fill="#E56A0D" d="M251.7,479.5l-7.9,9.2h-4l5.8-9.2H251.7z"/>
</g>
<path fill="#E56A0D" d="M309.3,233.8c-25,0.1-45.1,20.6-44.9,45.6c0.1,25,45.8,66.9,45.8,66.9s44.9-42.6,44.8-67.6
	C354.6,253.7,334.4,233.6,309.3,233.8z"/>
<g>
	<path fill="#FFFFFF" d="M337.2,274.8c0,5.3,0,10.7,0,16c0,0-0.1,0-0.1,0.1c-0.4,1.3-1.3,1.9-2.6,1.9c-0.1,0-0.4,0-0.7,0
		c0,0.3,0,0.4,0,0.7c0,1.4,0,2.7,0,4.2c0,1.2-1,2.2-2.2,2.2c-2.2,0-4.2,0-6.3,0c-1.2,0-2.2-1-2.2-2.2c0-1.3,0-2.6,0-4
		c0-0.3,0-0.6,0-0.9c-8.9,0-17.7,0-26.6,0c0,0.3,0,0.4,0,0.7c0,1.3,0,2.7,0,4s-1,2.2-2.3,2.2c-2,0-4.2,0-6.2,0c-1.2,0-2.2-1-2.3-2.2
		c0-1.3,0-2.4,0-3.7c0-0.3,0-0.7,0-1c-0.3,0-0.6,0-0.7,0c-0.7,0-1.4-0.1-2-0.9c-0.3-0.3-0.4-0.7-0.7-1.2c0-5.3,0-10.7,0-16
		c0-0.1,0.1-0.3,0.1-0.4c0.4-0.9,1-1.4,2-1.4c0.4,0,0.6-0.1,0.7-0.6c1.7-4,3.5-8.1,5.2-12.2c0.6-1.3,1.4-1.9,2.9-1.9
		c1.9,0,3.7,0,5.8,0c0.1,0,0.4,0,0.6,0c0-0.1,0-0.1,0-0.1c0-1.2,0-2.2,0-3.3c0-1.7,1-2.7,2.7-2.7c1.9,0,3.9,0,5.8,0
		c3.2,0,6.3,0,9.5,0c1.6,0,2.6,1,2.6,2.6c0,0.7,0,1.3,0,2c0,0.6,0,1,0,1.6c0.3,0,0.4,0,0.7,0c1.9,0,3.7,0,5.8,0
		c1.4,0,2.3,0.6,2.9,1.9c1.6,3.9,3.3,7.8,5,11.7c0.3,0.6,0.4,1,1.3,1.2C336.5,273.1,336.9,273.9,337.2,274.8z M329.3,272.8
		c0-0.1,0-0.3-0.1-0.3c-1.3-3-2.6-5.9-3.9-8.9c-0.1-0.3-0.4-0.3-0.7-0.3c-9.9,0-19.9,0-29.9,0c-0.4,0-0.6,0.1-0.7,0.4
		c-1.2,2.9-2.4,5.8-3.7,8.6c-0.1,0.1-0.1,0.3-0.1,0.6C303.3,272.8,316.2,272.8,329.3,272.8z M321.7,282.7c0,2.6,2.2,4.9,4.9,4.7
		c2.7,0,4.7-2.2,4.7-4.9c0-2.6-2.2-4.7-4.7-4.7C323.8,277.8,321.5,280.1,321.7,282.7z M297.7,282.7c0-2.6-2.3-4.9-4.9-4.7
		c-2.6,0-4.7,2.2-4.7,4.9c0,2.6,2.2,4.9,4.9,4.9C295.5,287.5,297.7,285.3,297.7,282.7z"/>
</g>
</svg>
