<?xml version="1.0" encoding="utf-8"?>
<!-- Generator: Adobe Illustrator 18.0.0, SVG Export Plug-In . SVG Version: 6.00 Build 0)  -->
<!DOCTYPE svg PUBLIC "-//W3C//DTD SVG 1.1//EN" "http://www.w3.org/Graphics/SVG/1.1/DTD/svg11.dtd">
<svg version="1.1" id="Layer_1" xmlns="http://www.w3.org/2000/svg" xmlns:xlink="http://www.w3.org/1999/xlink" x="0px" y="0px"
	 viewBox="0 0 500 200" enable-background="new 0 0 500 200" xml:space="preserve">
<polygon fill="#E46C25" points="76.6,33.3 63.7,33.3 63.7,93.4 63.7,110.5 49.3,110.5 49.3,93.4 49.3,33.3 35.4,33.3 35.4,19.1 
	49.3,19.1 63.7,19.1 76.6,19.1 "/>
<path fill="#E46C25" d="M108.9,47.2l-3.6,29.7h7.3L108.9,47.2z M99.8,110.5H85.2l14.7-91.6h17.8l14.7,91.6h-14.6l-2.9-19.2H103
	L99.8,110.5z"/>
<polygon fill="#E46C25" points="185.2,19.9 171.5,60.7 184,107.2 184.9,110.5 181.6,110.5 171.8,110.5 169.8,110.5 169.2,108.4 
	161.4,77.9 153.8,108.4 153.3,110.5 151.2,110.5 141.4,110.5 138,110.5 138.8,107.2 151.3,60.7 137.2,19.1 152.9,19.1 161.4,45.8 
	169.8,19.1 185.5,19.1 "/>
<rect x="193.2" y="19.1" fill="#E46C25" width="14.4" height="91.5"/>
<rect x="51.4" y="158.2" fill="#E46C25" width="31.7" height="31.7"/>
<rect x="82.1" y="127.6" fill="#E46C25" width="31.7" height="31.7"/>
<rect x="113.8" y="158.2" fill="#E46C25" width="31.7" height="31.7"/>
<rect x="144.3" y="127.6" fill="#E46C25" width="31.7" height="31.7"/>
<rect x="176" y="158.2" fill="#E46C25" width="31.7" height="31.7"/>
<rect x="206.7" y="127.6" fill="#E46C25" width="31.7" height="31.7"/>
<rect x="238.3" y="158.2" fill="#E46C25" width="31.7" height="31.7"/>
<rect x="268.9" y="127.6" fill="#E46C25" width="31.7" height="31.7"/>
<rect x="300.5" y="158.2" fill="#E46C25" width="31.7" height="31.7"/>
<rect x="331.2" y="127.6" fill="#E46C25" width="31.7" height="31.7"/>
<rect x="362.9" y="158.2" fill="#E46C25" width="31.7" height="31.7"/>
<rect x="393.4" y="127.6" fill="#E46C25" width="31.7" height="31.7"/>
<rect x="425.1" y="158.2" fill="#E46C25" width="31.7" height="31.7"/>
<polygon fill="#585857" points="268.2,20 268.2,110.5 259.1,110.5 259.1,46.1 249,104 236.6,104 226.7,46.1 226.7,110.5 
	217.6,110.5 217.6,20 231.5,20 242.9,87 254.4,20 "/>
<path fill="#585857" d="M302.9,80l-6.7-41.8L289.6,80H302.9z M304.3,89.1h-16.3l-3.4,21.4h-9.2L289.9,20h12.5l14.4,90.5h-9.2
	L304.3,89.1z"/>
<polygon fill="#585857" points="356.3,29.1 343.7,29.1 343.7,110.5 334.6,110.5 334.6,29.1 322,29.1 322,20 356.3,20 "/>
<rect x="364.7" y="20" fill="#585857" width="9.1" height="90.5"/>
<path fill="#585857" d="M418.2,90.6v9.7c0,2.5-0.8,4.8-2.4,6.7c-1.5,2-3.6,3.1-6.2,3.5h-18.9c-2.5-0.4-4.6-1.5-6.2-3.5
	c-1.7-2-2.5-4.2-2.5-6.7V30.1c0-2.7,0.8-4.9,2.5-6.7c1.7-2,3.6-3.1,6.2-3.5h18.9c2.5,0.4,4.5,1.5,6.2,3.5c1.5,2,2.4,4.2,2.4,6.7v9.7
	h-9.1v-9.5c0-0.8-0.4-1.3-1.1-1.3h-15.6c-0.8,0-1.3,0.4-1.3,1.3v69.9c0,0.8,0.4,1.3,1.3,1.3H408c0.8,0,1.1-0.4,1.1-1.3v-9.5H418.2z"
	/>
<path fill="#585857" d="M453.9,30.3c0-0.8-0.4-1.3-1.1-1.3H437c-0.8,0-1.3,0.4-1.3,1.3v69.9c0,0.8,0.4,1.3,1.3,1.3h15.7
	c0.8,0,1.1-0.4,1.1-1.3V30.3H453.9z M454.2,19.9c2.5,0.4,4.6,1.5,6.2,3.5c1.7,2,2.5,4.2,2.5,6.7v70.2c0,2.5-0.8,4.9-2.5,6.7
	c-1.7,2-3.6,3.1-6.2,3.5h-19.1c-2.5-0.4-4.6-1.5-6.2-3.5c-1.7-2-2.5-4.2-2.5-6.7V30.1c0-2.5,0.8-4.9,2.5-6.7c1.7-2,3.6-3.1,6.2-3.5
	H454.2z"/>
<rect x="299.4" y="20" fill="#E46C25" width="23" height="23"/>
</svg>
