<?xml version="1.0" encoding="utf-8"?>
<!-- Generator: Adobe Illustrator 18.1.1, SVG Export Plug-In . SVG Version: 6.00 Build 0)  -->
<svg version="1.1" id="Capa_1" xmlns="http://www.w3.org/2000/svg" xmlns:xlink="http://www.w3.org/1999/xlink" x="0px" y="0px"
	 viewBox="150.6 229 761.4 257" enable-background="new 150.6 229 761.4 257" xml:space="preserve">
<g>
	<path fill="#E56A0D" d="M509.2,332v136.1h-11.4v-97l-12.6,87.1h-15.5L457.1,371v97h-11.4V332h17.3l14.4,100.8L491.9,332H509.2z"/>
	<path fill="#E56A0D" d="M554.4,435.8H534l-4.1,32.2h-11.6L536.3,332h15.5l18.1,136.1h-11.6L554.4,435.8z M552.6,422.2l-8.5-62.9
		l-8.3,62.9H552.6z"/>
	<path fill="#E56A0D" d="M619.7,345.6h-16v122.8h-11.4V345.6h-16V332h43.1v13.6H619.7z"/>
	<path fill="#E56A0D" d="M641.6,468.1h-11.4V332h11.4V468.1z"/>
	<path fill="#E56A0D" d="M697.1,438.3v14.6c0,4-1,7.1-3.1,10.2c-2.1,2.8-4.6,4.7-7.7,5.3h-23.7c-3.1-0.6-5.7-2.5-7.7-5.3
		c-2.1-2.8-3.1-6.2-3.1-10.2V347.2c0-4,1-7.1,3.1-10.2c2.1-2.8,4.6-4.7,7.7-5.3h23.7c3.1,0.6,5.7,2.5,7.7,5.3
		c2.1,2.8,3.1,6.2,3.1,10.2v14.6h-11.4v-14.6c0-1.2-0.5-1.9-1.5-1.9h-19.1c-1,0-1.5,0.6-1.5,1.9v105.4c0,1.2,0.5,1.9,1.5,1.9h19.3
		c1,0,1.5-0.6,1.5-1.9V438h11.1V438.3z"/>
	<path fill="#E56A0D" d="M742.5,331.7c3.1,0.6,5.7,2.5,7.7,5.3c2.1,2.8,3.1,6.2,3.1,10.2v105.7c0,4-1,7.1-3.1,10.2
		c-2.1,3.1-4.6,4.7-7.7,5.3h-23.7c-3.1-0.6-5.7-2.5-7.7-5.3c-2.1-2.8-3.1-6.2-3.1-10.2V347.2c0-4,1-7.1,3.1-10.2
		c2.1-2.8,4.6-4.7,7.7-5.3H742.5z M741.9,347.2c0-1.2-0.5-1.9-1.5-1.9h-19.9c-1,0-1.5,0.6-1.5,1.9v105.4c0,1.2,0.5,1.9,1.5,1.9h19.9
		c1,0,1.5-0.6,1.5-1.9V347.2z"/>
	<path fill="#3C3C3B" d="M775,451.3v17.1h-11.4v-17.1H775z"/>
	<path fill="#3C3C3B" d="M849.8,332v136.1h-11.4v-97l-12.6,87.1h-15.5L797.7,371v97h-11.4V332h17.3l14.4,100.8L832.5,332H849.8z"/>
	<path fill="#3C3C3B" d="M895.7,393.7l17.3,74.4h-11.9l-14.2-64.5l-14.2,64.5h-12.1l17.3-74.4L860.6,332H873l13.9,52.7l13.7-52.7
		H913L895.7,393.7z"/>
</g>
<g>
	<path fill="#3C3C3B" d="M212,353.1h-19.3v89.5v25.6h-21.4v-25.6v-89.5h-20.7v-21.4h20.7h21.4H212V353.1z"/>
	<path fill="#3C3C3B" d="M254.5,468.3h-21.7l21.9-136.9h26.5l22,136.9h-21.9l-4.5-28.6h-17.7L254.5,468.3z M268,373.8l-5.5,44.3
		h10.9L268,373.8z"/>
	<path fill="#3C3C3B" d="M389.9,333.1l-20.4,60.6l18.7,69.5l1.3,5h-5h-14.5H367l-0.7-3.2l-11.7-45.6l-11.4,45.6l-0.7,3.2h-3.2h-14.7
		h-5.2l1.3-5l18.6-69.5l-21-62h23.5l12.7,40l12.5-40h23.5L389.9,333.1z"/>
	<path fill="#3C3C3B" d="M409.9,468.3V331.7h21.4v136.6H409.9z"/>
</g>
<g>
	<path fill="#E56A0D" d="M566.6,332l-7.9,9.2h-4l5.8-9.2H566.6z"/>
</g>
<path fill="#E56A0D" d="M301.1,235.5c-25,0.1-45.1,20.6-44.9,45.6c0.1,25,45.8,66.9,45.8,66.9s44.9-42.6,44.8-67.6
	C346.6,255.4,326.2,235.2,301.1,235.5z"/>
<g>
	<path fill="#FFFFFF" d="M329,276.4c0,5.3,0,10.7,0,16c0,0-0.1,0-0.1,0.1c-0.4,1.3-1.3,1.9-2.6,1.9c-0.1,0-0.4,0-0.7,0
		c0,0.3,0,0.4,0,0.7c0,1.4,0,2.7,0,4.2c0,1.2-1,2.2-2.2,2.2c-2.2,0-4.2,0-6.3,0c-1.2,0-2.2-1-2.2-2.2c0-1.3,0-2.6,0-4
		c0-0.3,0-0.6,0-0.9c-8.9,0-17.7,0-26.6,0c0,0.3,0,0.4,0,0.7c0,1.3,0,2.7,0,4c0,1.3-1,2.2-2.3,2.2c-2,0-4.2,0-6.2,0
		c-1.2,0-2.2-1-2.3-2.2c0-1.3,0-2.4,0-3.7c0-0.3,0-0.7,0-1c-0.3,0-0.6,0-0.7,0c-0.7,0-1.4-0.1-2-0.9c-0.3-0.3-0.4-0.7-0.7-1.2
		c0-5.3,0-10.7,0-16c0-0.1,0.1-0.3,0.1-0.4c0.4-0.9,1-1.4,2-1.4c0.4,0,0.6-0.1,0.7-0.6c1.7-4,3.5-8.1,5.2-12.2
		c0.6-1.3,1.4-1.9,2.9-1.9c1.9,0,3.7,0,5.8,0c0.1,0,0.4,0,0.6,0c0-0.1,0-0.1,0-0.1c0-1.2,0-2.2,0-3.3c0-1.7,1-2.7,2.7-2.7
		c1.9,0,3.9,0,5.8,0c3.2,0,6.3,0,9.5,0c1.6,0,2.6,1,2.6,2.6c0,0.7,0,1.3,0,2c0,0.6,0,1,0,1.6c0.3,0,0.4,0,0.7,0c1.9,0,3.7,0,5.8,0
		c1.4,0,2.3,0.6,2.9,1.9c1.6,3.9,3.3,7.8,5,11.7c0.3,0.6,0.4,1,1.3,1.2C328.3,274.8,328.7,275.5,329,276.4z M321.1,274.5
		c0-0.1,0-0.3-0.1-0.3c-1.3-3-2.6-5.9-3.9-8.9c-0.1-0.3-0.4-0.3-0.7-0.3c-9.9,0-19.9,0-29.9,0c-0.4,0-0.6,0.1-0.7,0.4
		c-1.2,2.9-2.4,5.8-3.7,8.6c-0.1,0.1-0.1,0.3-0.1,0.6C295.1,274.5,308,274.5,321.1,274.5z M313.5,284.5c0,2.6,2.2,4.9,4.9,4.7
		c2.7,0,4.7-2.2,4.7-4.9c0-2.6-2.2-4.7-4.7-4.7C315.6,279.6,313.5,281.7,313.5,284.5z M289.4,284.3c0-2.6-2.3-4.9-4.9-4.7
		c-2.6,0-4.7,2.2-4.7,4.9c0,2.6,2.2,4.9,4.9,4.9C287.3,289.2,289.4,287,289.4,284.3z"/>
</g>
</svg>
